<?xml version="1.0" encoding="UTF-8"?>
<svg width="22px" height="30px" viewBox="0 0 22 30" version="1.1" xmlns="http://www.w3.org/2000/svg" xmlns:xlink="http://www.w3.org/1999/xlink">
    <!-- Generator: Sketch 64 (93537) - https://sketch.com -->
    <title>Artboard@1x</title>
    <desc>Created with Sketch.</desc>
    <g id="Artboard" stroke="none" stroke-width="1" fill="none" fill-rule="evenodd">
        <g id="icon-pause" fill="#000000" fill-rule="nonzero">
            <path d="M6.533,3.671 L6.533,26.418 C6.533,27.304 6.873,27.873 7.555,28.127 C8.237,28.379 8.577,28.674 8.577,29.012 C8.577,29.294 8.437,29.433 8.156,29.433 L1.22,29.433 C0.925,29.433 0.777,29.294 0.777,29.012 C0.777,28.674 1.121,28.383 1.81,28.137 C2.498,27.892 2.843,27.327 2.843,26.443 L2.843,3.671 C2.843,2.786 2.498,2.22 1.81,1.974 C1.122,1.728 0.777,1.429 0.777,1.078 C0.777,0.797 0.924,0.657 1.22,0.657 L8.156,0.657 C8.437,0.657 8.577,0.797 8.577,1.078 C8.577,1.43 8.237,1.728 7.555,1.974 C6.875,2.22 6.533,2.786 6.533,3.671 Z M19.731,3.671 L19.731,26.418 C19.731,27.304 20.073,27.873 20.753,28.127 C21.436,28.379 21.775,28.674 21.775,29.012 C21.775,29.294 21.633,29.433 21.353,29.433 L14.396,29.433 C14.116,29.433 13.974,29.294 13.974,29.012 C13.974,28.674 14.314,28.383 14.996,28.137 C15.677,27.892 16.017,27.327 16.017,26.443 L16.017,3.671 C16.017,2.786 15.679,2.22 14.996,1.974 C14.313,1.728 13.974,1.429 13.974,1.078 C13.974,0.797 14.116,0.657 14.396,0.657 L21.353,0.657 C21.633,0.657 21.775,0.797 21.775,1.078 C21.775,1.43 21.433,1.728 20.753,1.974 C20.073,2.22 19.731,2.786 19.731,3.671 Z" id="Shape"></path>
        </g>
    </g>
</svg>