<?xml version="1.0" encoding="utf-8"?>
<!-- Generator: Adobe Illustrator 16.0.4, SVG Export Plug-In . SVG Version: 6.00 Build 0)  -->
<!DOCTYPE svg PUBLIC "-//W3C//DTD SVG 1.1//EN" "http://www.w3.org/Graphics/SVG/1.1/DTD/svg11.dtd">
<svg version="1.1" id="Ebene_1" xmlns="http://www.w3.org/2000/svg" xmlns:xlink="http://www.w3.org/1999/xlink" x="0px" y="0px"
	 width="99.213px" height="99.213px" viewBox="0 0 99.213 99.213" enable-background="new 0 0 99.213 99.213" xml:space="preserve">
<path d="M43.358,34.627v29.958c0,1.166,0.448,1.916,1.346,2.25c0.898,0.332,1.347,0.721,1.347,1.166
	c0,0.371-0.185,0.555-0.555,0.555h-9.135c-0.389,0-0.583-0.184-0.583-0.555c0-0.445,0.453-0.828,1.36-1.152
	c0.906-0.324,1.36-1.068,1.36-2.234V34.627c0-1.166-0.454-1.911-1.36-2.235c-0.907-0.324-1.36-0.717-1.36-1.18
	c0-0.37,0.194-0.555,0.583-0.555h9.135c0.37,0,0.555,0.185,0.555,0.555c0,0.463-0.448,0.856-1.347,1.18
	C43.807,32.716,43.358,33.461,43.358,34.627z M60.741,34.627v29.958c0,1.166,0.449,1.916,1.347,2.25
	c0.897,0.332,1.347,0.721,1.347,1.166c0,0.371-0.185,0.555-0.555,0.555h-9.163c-0.37,0-0.555-0.184-0.555-0.555
	c0-0.445,0.448-0.828,1.347-1.152c0.897-0.324,1.346-1.068,1.346-2.234V34.627c0-1.166-0.448-1.911-1.346-2.235
	c-0.898-0.324-1.347-0.717-1.347-1.18c0-0.37,0.185-0.555,0.555-0.555h9.163c0.37,0,0.555,0.185,0.555,0.555
	c0,0.463-0.449,0.856-1.347,1.18C61.19,32.716,60.741,33.461,60.741,34.627z"/>
</svg>
