<?xml version="1.0" encoding="utf-8"?>
<!-- Generator: Adobe Illustrator 16.0.4, SVG Export Plug-In . SVG Version: 6.00 Build 0)  -->
<!DOCTYPE svg PUBLIC "-//W3C//DTD SVG 1.1//EN" "http://www.w3.org/Graphics/SVG/1.1/DTD/svg11.dtd">
<svg version="1.1" id="Ebene_1" xmlns="http://www.w3.org/2000/svg" xmlns:xlink="http://www.w3.org/1999/xlink" x="0px" y="0px"
	 width="99.213px" height="99.213px" viewBox="0 0 99.213 99.213" enable-background="new 0 0 99.213 99.213" xml:space="preserve">
<title>icon-play</title>
<desc>Created with Sketch.</desc>
<path d="M64.415,53.017c-0.101-0.332-0.521-0.515-1.263-0.552c-0.742-0.037-1.245-0.489-1.509-1.358l-6.812-22.318
	c-0.266-0.868-0.101-1.524,0.494-1.97c0.596-0.444,0.84-0.839,0.734-1.184c-0.085-0.275-0.265-0.371-0.539-0.287
	c0,0-4.406,1.805-5.915,1.805c-1.508,0-5.915-1.805-5.915-1.805c-0.275-0.084-0.454,0.012-0.538,0.287
	c-0.106,0.345,0.139,0.739,0.733,1.184c0.595,0.445,0.759,1.102,0.495,1.97l-6.811,22.318c-0.265,0.869-0.768,1.321-1.509,1.358
	c-0.743,0.037-1.163,0.22-1.265,0.552c-0.084,0.275,0.011,0.454,0.287,0.539l6.82,2.08c0.275,0.084,0.454-0.011,0.539-0.287
	c0.102-0.331-0.146-0.722-0.737-1.173c-0.593-0.453-0.757-1.113-0.492-1.98l6.804-22.298c0.265-0.868,0.769-1.32,1.51-1.358
	c0.03-0.001,0.05-0.007,0.079-0.009c0.029,0.002,0.049,0.008,0.079,0.009c0.742,0.038,1.246,0.49,1.51,1.358l6.803,22.298
	c0.265,0.867,0.102,1.527-0.491,1.98c-0.593,0.451-0.839,0.842-0.736,1.173c0.083,0.276,0.263,0.372,0.538,0.287l6.82-2.08
	C64.404,53.471,64.499,53.292,64.415,53.017z"/>
</svg>
