<?xml version="1.0" encoding="UTF-8"?>
<svg width="31px" height="31px" viewBox="0 0 31 31" version="1.1" xmlns="http://www.w3.org/2000/svg" xmlns:xlink="http://www.w3.org/1999/xlink">
    <!-- Generator: Sketch 64 (93537) - https://sketch.com -->
    <title>Artboard@1x</title>
    <desc>Created with Sketch.</desc>
    <g id="Artboard" stroke="none" stroke-width="1" fill="none" fill-rule="evenodd">
        <g id="icon-play" fill="#000000" fill-rule="nonzero">
            <path d="M30.415,28.017 C30.314,27.685 29.894,27.502 29.152,27.465 C28.41,27.428 27.907,26.976 27.643,26.107 L20.831,3.789 C20.565,2.921 20.73,2.265 21.325,1.819 C21.921,1.375 22.165,0.98 22.059,0.635 C21.974,0.36 21.794,0.264 21.52,0.348 C21.52,0.348 17.114,2.153 15.605,2.153 C14.097,2.153 9.69,0.348 9.69,0.348 C9.415,0.264 9.236,0.36 9.152,0.635 C9.046,0.98 9.291,1.374 9.885,1.819 C10.48,2.264 10.644,2.921 10.38,3.789 L3.569,26.107 C3.304,26.976 2.801,27.428 2.06,27.465 C1.317,27.502 0.897,27.685 0.795,28.017 C0.711,28.292 0.806,28.471 1.082,28.556 L7.902,30.636 C8.177,30.72 8.356,30.625 8.441,30.349 C8.543,30.018 8.295,29.627 7.704,29.176 C7.111,28.723 6.947,28.063 7.212,27.196 L14.016,4.898 C14.281,4.03 14.785,3.578 15.526,3.54 C15.556,3.539 15.576,3.533 15.605,3.531 C15.634,3.533 15.654,3.539 15.684,3.54 C16.426,3.578 16.93,4.03 17.194,4.898 L23.997,27.196 C24.262,28.063 24.099,28.723 23.506,29.176 C22.913,29.627 22.667,30.018 22.77,30.349 C22.853,30.625 23.033,30.721 23.308,30.636 L30.128,28.556 C30.404,28.471 30.499,28.292 30.415,28.017 Z" id="Path"></path>
        </g>
    </g>
</svg>