<?xml version="1.0" encoding="utf-8"?>
<!-- Generator: Adobe Illustrator 16.0.4, SVG Export Plug-In . SVG Version: 6.00 Build 0)  -->
<!DOCTYPE svg PUBLIC "-//W3C//DTD SVG 1.1//EN" "http://www.w3.org/Graphics/SVG/1.1/DTD/svg11.dtd">
<svg version="1.1" id="Ebene_1" xmlns="http://www.w3.org/2000/svg" xmlns:xlink="http://www.w3.org/1999/xlink" x="0px" y="0px"
	 width="99.213px" height="99.213px" viewBox="0 0 99.213 99.213" enable-background="new 0 0 99.213 99.213" xml:space="preserve">
<path d="M44.533,28.671v22.747c0,0.886,0.34,1.455,1.022,1.709c0.682,0.252,1.022,0.547,1.022,0.885c0,0.282-0.14,0.421-0.421,0.421
	H39.22c-0.295,0-0.443-0.139-0.443-0.421c0-0.338,0.344-0.629,1.033-0.875c0.688-0.245,1.033-0.81,1.033-1.694V28.671
	c0-0.885-0.345-1.451-1.033-1.697c-0.688-0.246-1.033-0.545-1.033-0.896c0-0.281,0.147-0.421,0.443-0.421h6.936
	c0.281,0,0.421,0.14,0.421,0.421c0,0.352-0.34,0.65-1.022,0.896C44.875,27.22,44.533,27.786,44.533,28.671z M57.731,28.671v22.747
	c0,0.886,0.342,1.455,1.022,1.709c0.683,0.252,1.022,0.547,1.022,0.885c0,0.282-0.142,0.421-0.422,0.421h-6.957
	c-0.28,0-0.422-0.139-0.422-0.421c0-0.338,0.34-0.629,1.022-0.875c0.681-0.245,1.021-0.81,1.021-1.694V28.671
	c0-0.885-0.338-1.451-1.021-1.697c-0.683-0.246-1.022-0.545-1.022-0.896c0-0.281,0.142-0.421,0.422-0.421h6.957
	c0.28,0,0.422,0.14,0.422,0.421c0,0.352-0.342,0.65-1.022,0.896C58.073,27.22,57.731,27.786,57.731,28.671z"/>
</svg>
